<svg width="80" height="80" viewBox="0 0 80 80" fill="none" xmlns="http://www.w3.org/2000/svg">
<path d="M69.4865 51.0237L78.4962 42.0274C79.0244 41.49 79.3203 40.7667 79.3203 40.0133C79.3203 39.2598 79.0244 38.5366 78.4962 37.9992L69.4865 29.0029C68.952 28.4636 68.6527 27.7346 68.654 26.9754V14.2194C68.654 13.4596 68.3531 12.7308 67.8172 12.1923C67.2812 11.6538 66.5537 11.3495 65.794 11.3459H53.0515C52.2922 11.3472 51.5632 11.0479 51.0239 10.5135L42.0276 1.50372C41.4903 0.97561 40.767 0.679688 40.0135 0.679688C39.2601 0.679687 38.5368 0.97561 37.9994 1.50372L29.0031 10.5135C28.4638 11.0479 27.7349 11.3472 26.9756 11.3459H14.2196C13.4576 11.3459 12.7267 11.6487 12.1878 12.1876C11.6489 12.7264 11.3462 13.4573 11.3462 14.2194V26.9485C11.3475 27.7078 11.0482 28.4367 10.5137 28.976L1.50396 37.9723C0.975854 38.5097 0.679932 39.233 0.679932 39.9864C0.679932 40.7399 0.975854 41.4632 1.50396 42.0005L10.5137 51.0237C11.0482 51.563 11.3475 52.2919 11.3462 53.0512V65.7937C11.3462 66.5558 11.6489 67.2867 12.1878 67.8256C12.7267 68.3645 13.4576 68.6672 14.2196 68.6672H26.9487C27.708 68.6659 28.437 68.9652 28.9763 69.4997L37.9726 78.5094C38.5099 79.0375 39.2332 79.3335 39.9867 79.3335C40.7401 79.3335 41.4634 79.0375 42.0008 78.5094L51.0239 69.4863C51.5632 68.9518 52.2922 68.6525 53.0515 68.6538H65.794C66.5514 68.6502 67.2768 68.3478 67.8124 67.8122C68.348 67.2766 68.6505 66.5512 68.654 65.7937V53.0512C68.6527 52.2919 68.952 51.563 69.4865 51.0237Z" fill="#4F0B67"/>
<path d="M69.4865 51.0237L78.4962 42.0274C79.0244 41.49 79.3203 40.7667 79.3203 40.0133C79.3203 39.2598 79.0244 38.5366 78.4962 37.9992L69.4865 29.0029C68.952 28.4636 68.6527 27.7346 68.654 26.9754V14.2194C68.654 13.4596 68.3531 12.7308 67.8172 12.1923C67.2812 11.6538 66.5537 11.3495 65.794 11.3459H53.0515C52.2922 11.3472 51.5632 11.0479 51.0239 10.5135L42.0276 1.50372C41.4903 0.97561 40.767 0.679688 40.0135 0.679688C39.2601 0.679687 38.5368 0.97561 37.9994 1.50372L29.0031 10.5135C28.4638 11.0479 27.7349 11.3472 26.9756 11.3459H14.2196C13.4576 11.3459 12.7267 11.6487 12.1878 12.1876C11.6489 12.7264 11.3462 13.4573 11.3462 14.2194V26.9485C11.3475 27.7078 11.0482 28.4367 10.5137 28.976L1.50396 37.9723C0.975854 38.5097 0.679932 39.233 0.679932 39.9864C0.679932 40.7399 0.975854 41.4632 1.50396 42.0005L10.5137 51.0237C11.0482 51.563 11.3475 52.2919 11.3462 53.0512V65.7937C11.3462 66.5558 11.6489 67.2867 12.1878 67.8256C12.7267 68.3645 13.4576 68.6672 14.2196 68.6672H26.9487C27.708 68.6659 28.437 68.9652 28.9763 69.4997L37.9726 78.5094C38.5099 79.0375 39.2332 79.3335 39.9867 79.3335C40.7401 79.3335 41.4634 79.0375 42.0008 78.5094L51.0239 69.4863C51.5632 68.9518 52.2922 68.6525 53.0515 68.6538H65.794C66.5514 68.6502 67.2768 68.3478 67.8124 67.8122C68.348 67.2766 68.6505 66.5512 68.654 65.7937V53.0512C68.6527 52.2919 68.952 51.563 69.4865 51.0237Z" fill="url(#paint0_diamond_418_3688)"/>
<path d="M69.4865 51.0237L78.4962 42.0274C79.0244 41.49 79.3203 40.7667 79.3203 40.0133C79.3203 39.2598 79.0244 38.5366 78.4962 37.9992L69.4865 29.0029C68.952 28.4636 68.6527 27.7346 68.654 26.9754V14.2194C68.654 13.4596 68.3531 12.7308 67.8172 12.1923C67.2812 11.6538 66.5537 11.3495 65.794 11.3459H53.0515C52.2922 11.3472 51.5632 11.0479 51.0239 10.5135L42.0276 1.50372C41.4903 0.97561 40.767 0.679688 40.0135 0.679688C39.2601 0.679687 38.5368 0.97561 37.9994 1.50372L29.0031 10.5135C28.4638 11.0479 27.7349 11.3472 26.9756 11.3459H14.2196C13.4576 11.3459 12.7267 11.6487 12.1878 12.1876C11.6489 12.7264 11.3462 13.4573 11.3462 14.2194V26.9485C11.3475 27.7078 11.0482 28.4367 10.5137 28.976L1.50396 37.9723C0.975854 38.5097 0.679932 39.233 0.679932 39.9864C0.679932 40.7399 0.975854 41.4632 1.50396 42.0005L10.5137 51.0237C11.0482 51.563 11.3475 52.2919 11.3462 53.0512V65.7937C11.3462 66.5558 11.6489 67.2867 12.1878 67.8256C12.7267 68.3645 13.4576 68.6672 14.2196 68.6672H26.9487C27.708 68.6659 28.437 68.9652 28.9763 69.4997L37.9726 78.5094C38.5099 79.0375 39.2332 79.3335 39.9867 79.3335C40.7401 79.3335 41.4634 79.0375 42.0008 78.5094L51.0239 69.4863C51.5632 68.9518 52.2922 68.6525 53.0515 68.6538H65.794C66.5514 68.6502 67.2768 68.3478 67.8124 67.8122C68.348 67.2766 68.6505 66.5512 68.654 65.7937V53.0512C68.6527 52.2919 68.952 51.563 69.4865 51.0237Z" stroke="#777777" stroke-miterlimit="10"/>
<path d="M60.5038 47.6665L66.7743 41.4094C66.9603 41.2247 67.1078 41.005 67.2085 40.763C67.3092 40.5211 67.3611 40.2616 67.3611 39.9995C67.3611 39.7374 67.3092 39.4779 67.2085 39.236C67.1078 38.994 66.9603 38.7743 66.7743 38.5896L60.5038 32.3325C60.1532 31.9708 59.9477 31.493 59.9264 30.9898V22.074C59.909 21.5574 59.6925 21.0676 59.322 20.7072C58.9516 20.3467 58.456 20.1437 57.9391 20.1405H49.0771C48.5724 20.1256 48.0923 19.9192 47.7344 19.5631L41.4101 13.2254C41.2254 13.0395 41.0057 12.8919 40.7638 12.7912C40.5218 12.6905 40.2623 12.6387 40.0002 12.6387C39.7381 12.6387 39.4787 12.6905 39.2367 12.7912C38.9947 12.8919 38.7751 13.0395 38.5904 13.2254L32.3332 19.496C32.1488 19.6973 31.9248 19.8584 31.6753 19.9693C31.4258 20.0802 31.1561 20.1384 30.8831 20.1405H22.0748C21.5673 20.1572 21.0851 20.3663 20.7261 20.7254C20.3671 21.0844 20.158 21.5665 20.1412 22.074V30.8823C20.1263 31.387 19.9199 31.8671 19.5638 32.2251L13.2261 38.5896C13.0402 38.7743 12.8926 38.994 12.7919 39.236C12.6912 39.4779 12.6394 39.7374 12.6394 39.9995C12.6394 40.2616 12.6912 40.5211 12.7919 40.763C12.8926 41.005 13.0402 41.2247 13.2261 41.4094L19.4967 47.6665C19.8527 48.0245 20.0592 48.5046 20.0741 49.0092V57.8713C20.0776 58.3995 20.29 58.905 20.6648 59.2773C21.0396 59.6496 21.5465 59.8585 22.0748 59.8585H30.8831C31.3863 59.8799 31.8641 60.0853 32.2258 60.4359L38.4829 66.7065C38.6676 66.8924 38.8873 67.04 39.1293 67.1407C39.3712 67.2414 39.6307 67.2932 39.8928 67.2932C40.1549 67.2932 40.4144 67.2414 40.6564 67.1407C40.8983 67.04 41.118 66.8924 41.3027 66.7065L47.5598 60.4359C47.9215 60.0853 48.3993 59.8799 48.9025 59.8585H57.7646C58.2905 59.855 58.794 59.6445 59.1659 59.2726C59.5378 58.9007 59.7483 58.3972 59.7518 57.8713V49.0092C59.819 48.4811 60.0886 47.9997 60.5038 47.6665Z" fill="url(#paint1_diamond_418_3688)" stroke="#777777" stroke-miterlimit="10"/>
<path d="M38.1606 5.07617L29.9968 13.24C29.5044 13.7215 28.8459 13.9955 28.1572 14.0053H16.5963C16.2555 14.0036 15.9177 14.0694 15.6025 14.199C15.2873 14.3286 15.0009 14.5194 14.7599 14.7604C14.5189 15.0014 14.3281 15.2878 14.1985 15.603C14.0689 15.9182 14.0031 16.256 14.0048 16.5968V28.198C13.995 28.8867 13.721 29.5452 13.2395 30.0376L4.48486 40.0006" stroke="#E09FF8" stroke-width="2" stroke-miterlimit="10" stroke-linecap="round"/>
<path d="M39.6912 15.4414L32.615 22.5042C32.3161 22.8041 31.9104 22.9731 31.4871 22.9741H24.4109C23.9906 22.9741 23.5876 23.1411 23.2905 23.4382C22.9934 23.7353 22.8264 24.1383 22.8264 24.5586V31.6482C22.829 31.8583 22.7886 32.0667 22.7078 32.2606C22.627 32.4545 22.5074 32.6299 22.3565 32.7761L15.5354 40.3759" stroke="#E09FF8" stroke-width="1.23" stroke-miterlimit="10" stroke-linecap="round"/>
<path d="M41.5308 74.6686L49.6811 66.5048C49.9272 66.269 50.2178 66.0846 50.536 65.9624C50.8541 65.8402 51.1935 65.7827 51.5341 65.7931H63.1085C63.4552 65.7897 63.7977 65.7171 64.116 65.5796C64.4343 65.4421 64.7219 65.2425 64.962 64.9923C65.2021 64.7422 65.3899 64.4467 65.5143 64.1231C65.6387 63.7994 65.6973 63.4542 65.6865 63.1077V51.5602C65.6842 51.2179 65.7507 50.8786 65.8822 50.5626C66.0137 50.2466 66.2074 49.9602 66.4519 49.7206L75.1931 39.7441" stroke="#7F3D96" stroke-width="2" stroke-miterlimit="10" stroke-linecap="round"/>
<path d="M40.2014 64.6787L47.2776 57.6025C47.4263 57.4558 47.6024 57.34 47.796 57.2616C47.9896 57.1833 48.1967 57.144 48.4055 57.1459H55.4817C55.9055 57.1459 56.3119 56.9776 56.6116 56.6779C56.9112 56.3783 57.0796 55.9719 57.0796 55.5481V48.4585C57.0849 48.036 57.2533 47.6319 57.5495 47.3306L64.3706 39.7441" stroke="#C7B3CC" stroke-miterlimit="10" stroke-linecap="round"/>
<defs>
<radialGradient id="paint0_diamond_418_3688" cx="0" cy="0" r="1" gradientUnits="userSpaceOnUse" gradientTransform="translate(40.4052 40.4606) rotate(90.5971) scale(38.875 38.8684)">
<stop stop-color="#DC0AEE"/>
<stop offset="1" stop-color="#6A0473" stop-opacity="0"/>
</radialGradient>
<radialGradient id="paint1_diamond_418_3688" cx="0" cy="0" r="1" gradientUnits="userSpaceOnUse" gradientTransform="translate(40.2821 40.2814) rotate(90.5979) scale(27.0133 27.0465)">
<stop stop-color="#DC0AEE"/>
<stop offset="1" stop-color="#6A0473" stop-opacity="0"/>
</radialGradient>
</defs>
</svg>
