<svg width="61" height="60" viewBox="0 0 61 60" fill="none" xmlns="http://www.w3.org/2000/svg">
<g clip-path="url(#clip0_418_3676)">
<path d="M53.6823 39.6849C54.3678 41.5913 54.4972 43.6533 54.0556 45.6305C53.6141 47.6077 52.6196 49.4186 51.1881 50.8522C49.7567 52.2858 47.9473 53.283 45.9708 53.7276C43.9943 54.1722 41.9321 54.0459 40.0247 53.3633C39.1544 55.1935 37.7831 56.7395 36.0698 57.8219C34.3565 58.9044 32.3715 59.4789 30.3449 59.4789C28.3183 59.4789 26.3333 58.9044 24.62 57.8219C22.9067 56.7395 21.5354 55.1935 20.6652 53.3633C18.7571 54.0486 16.6936 54.1771 14.7153 53.7337C12.737 53.2904 10.9256 52.2934 9.49264 50.8593C8.05963 49.4252 7.06409 47.6131 6.62222 45.6345C6.18036 43.6559 6.3104 41.5924 6.99716 39.6849C5.16021 38.8207 3.6071 37.4516 2.51926 35.7375C1.43142 34.0235 0.85376 32.0353 0.85376 30.0052C0.85376 27.9751 1.43142 25.9869 2.51926 24.2728C3.6071 22.5588 5.16021 21.1897 6.99716 20.3254C6.31492 18.4182 6.18818 16.3564 6.63169 14.38C7.0752 12.4036 8.07074 10.5937 9.50249 9.16083C10.9343 7.72799 12.7434 6.73108 14.7195 6.28607C16.6956 5.84106 18.7574 5.96623 20.6652 6.64702C21.5324 4.81346 22.9026 3.26393 24.6163 2.1788C26.33 1.09367 28.3166 0.517578 30.3449 0.517578C32.3733 0.517578 34.3599 1.09367 36.0735 2.1788C37.7872 3.26393 39.1574 4.81346 40.0247 6.64702C41.9319 5.96897 43.9923 5.84591 45.9666 6.29215C47.9409 6.73838 49.7481 7.73559 51.1783 9.16795C52.6085 10.6003 53.603 12.409 54.0462 14.384C54.4894 16.359 54.3632 18.4193 53.6823 20.3254C55.5192 21.1897 57.0723 22.5588 58.1602 24.2728C59.248 25.9869 59.8257 27.9751 59.8257 30.0052C59.8257 32.0353 59.248 34.0235 58.1602 35.7375C57.0723 37.4516 55.5192 38.8207 53.6823 39.6849Z" fill="#FFBB0D" stroke="#E89B05" stroke-miterlimit="10"/>
<path d="M47.2013 36.9944C47.697 38.3715 47.7909 39.8612 47.472 41.2896C47.153 42.718 46.4344 44.0263 45.4001 45.0618C44.3657 46.0973 43.0582 46.8172 41.6301 47.1376C40.202 47.4581 38.7122 47.3658 37.3346 46.8715C36.7068 48.1938 35.7168 49.3109 34.4796 50.0931C33.2423 50.8753 31.8086 51.2905 30.3448 51.2905C28.881 51.2905 27.4473 50.8753 26.2101 50.0931C24.9728 49.3109 23.9828 48.1938 23.355 46.8715C21.9774 47.3658 20.4876 47.4581 19.0595 47.1376C17.6315 46.8172 16.3239 46.0973 15.2896 45.0618C14.2552 44.0263 13.5366 42.718 13.2177 41.2896C12.8987 39.8612 12.9926 38.3715 13.4883 36.9944C12.1626 36.3696 11.042 35.3807 10.2571 34.1431C9.47218 32.9055 9.05542 31.4702 9.05542 30.0046C9.05542 28.5391 9.47218 27.1038 10.2571 25.8662C11.042 24.6285 12.1626 23.6396 13.4883 23.0148C12.9971 21.638 12.9065 20.1501 13.2271 18.7238C13.5477 17.2976 14.2663 15.9915 15.2994 14.9573C16.3325 13.9231 17.6378 13.2031 19.0637 12.8811C20.4897 12.559 21.9777 12.648 23.355 13.1377C23.9828 11.8154 24.9728 10.6983 26.2101 9.91615C27.4473 9.13395 28.881 8.71875 30.3448 8.71875C31.8086 8.71875 33.2423 9.13395 34.4796 9.91615C35.7168 10.6983 36.7068 11.8154 37.3346 13.1377C38.712 12.648 40.2 12.559 41.6259 12.8811C43.0518 13.2031 44.3571 13.9231 45.3902 14.9573C46.4234 15.9915 47.1419 17.2976 47.4625 18.7238C47.7831 20.1501 47.6925 21.638 47.2013 23.0148C48.527 23.6396 49.6476 24.6285 50.4325 25.8662C51.2174 27.1038 51.6342 28.5391 51.6342 30.0046C51.6342 31.4702 51.2174 32.9055 50.4325 34.1431C49.6476 35.3807 48.527 36.3696 47.2013 36.9944Z" fill="#FFDD28" stroke="#E89B05" stroke-miterlimit="10"/>
<path d="M56.175 30.0059C56.1771 31.7839 55.6721 33.5257 54.7192 35.0268C53.7663 36.528 52.405 37.7262 50.795 38.4808C51.4042 40.1525 51.5235 41.9633 51.1391 43.7005C50.7547 45.4377 49.8825 47.0291 48.625 48.2877C47.3674 49.5464 45.7768 50.42 44.0399 50.8059C42.3031 51.1918 40.4922 51.074 38.82 50.4663C38.0638 52.0743 36.8649 53.4335 35.3639 54.3845C33.8629 55.3355 32.1219 55.8389 30.345 55.8359" stroke="#F0AF05" stroke-miterlimit="10" stroke-linecap="round"/>
<path d="M56.175 30.0059C56.1771 31.7839 55.6721 33.5257 54.7192 35.0268C53.7663 36.528 52.405 37.7262 50.795 38.4808C51.4042 40.1525 51.5235 41.9633 51.1391 43.7005C50.7547 45.4377 49.8825 47.0291 48.625 48.2877C47.3674 49.5464 45.7768 50.42 44.0399 50.8059C42.3031 51.1918 40.4922 51.074 38.82 50.4663C38.0638 52.0743 36.8649 53.4335 35.3639 54.3845C33.8629 55.3355 32.1219 55.8389 30.345 55.8359" stroke="#F0AF05" stroke-width="2" stroke-miterlimit="10" stroke-linecap="round"/>
<path d="M4.06838 29.5586C4.06425 27.7788 4.56834 26.0348 5.52138 24.5316C6.47442 23.0285 7.83679 21.8286 9.44834 21.0732C8.84055 19.4026 8.72176 17.5933 9.10589 15.8576C9.49003 14.1219 10.3612 12.5317 11.6171 11.2735C12.8731 10.0154 14.4618 9.1415 16.1968 8.75435C17.9319 8.36721 19.7414 8.48286 21.413 9.08775C22.1715 7.48009 23.3726 6.12201 24.8755 5.17279C26.3784 4.22358 28.1208 3.72259 29.8984 3.72857" stroke="#FFEF9C" stroke-width="2" stroke-miterlimit="10" stroke-linecap="round"/>
<path d="M48.4477 30.5254C48.4491 31.7303 48.1069 32.9106 47.4612 33.9279C46.8155 34.9452 45.8931 35.7573 44.8022 36.2689C45.2112 37.4007 45.2894 38.6257 45.0275 39.8003C44.7657 40.975 44.1747 42.0508 43.3237 42.9018C42.4727 43.7528 41.3969 44.3438 40.2222 44.6057C39.0475 44.8675 37.8226 44.7893 36.6907 44.3803C36.1751 45.4666 35.3616 46.384 34.3447 47.0257C33.3279 47.6674 32.1497 48.0071 30.9473 48.0051" stroke="#ECC704" stroke-miterlimit="10" stroke-linecap="round"/>
<path d="M12.6782 29.7238C12.6788 28.5207 13.0219 27.3426 13.6675 26.3273C14.3131 25.312 15.2344 24.5016 16.3237 23.9907C15.916 22.8599 15.8384 21.6365 16.1 20.4633C16.3616 19.2901 16.9515 18.2155 17.8009 17.365C18.6503 16.5144 19.7242 15.9231 20.8971 15.6601C22.07 15.397 23.2935 15.473 24.4248 15.8792C24.9389 14.7911 25.7519 13.8715 26.7688 13.2279C27.7857 12.5842 28.9648 12.2431 30.1683 12.2441" stroke="#FFEF9C" stroke-miterlimit="10" stroke-linecap="round"/>
</g>
<defs>
<clipPath id="clip0_418_3676">
<rect width="60" height="60" fill="white" transform="translate(0.339844)"/>
</clipPath>
</defs>
</svg>
