<svg width="70" height="70" viewBox="0 0 70 70" fill="none" xmlns="http://www.w3.org/2000/svg">
<path d="M34.9999 69.1825C53.8782 69.1825 69.182 53.8787 69.182 35.0004C69.182 16.1222 53.8782 0.818359 34.9999 0.818359C16.1217 0.818359 0.817871 16.1222 0.817871 35.0004C0.817871 53.8787 16.1217 69.1825 34.9999 69.1825Z" fill="#75CC7E" stroke="#777777" stroke-width="1.34" stroke-miterlimit="10"/>
<path d="M4.67578 33.4986C4.67578 25.8543 7.71246 18.5231 13.1178 13.1178C18.5231 7.71246 25.8543 4.67578 33.4986 4.67578" stroke="#9FF8AD" stroke-width="2" stroke-miterlimit="10" stroke-linecap="round"/>
<path d="M34.9999 61.0652C49.3945 61.0652 61.0637 49.396 61.0637 35.0013C61.0637 20.6067 49.3945 8.9375 34.9999 8.9375C20.6052 8.9375 8.93604 20.6067 8.93604 35.0013C8.93604 49.396 20.6052 61.0652 34.9999 61.0652Z" fill="#7BD873" stroke="#777777" stroke-miterlimit="10"/>
<path d="M13.0869 35.5138C13.0853 32.5683 13.6643 29.6514 14.7907 26.9299C15.9172 24.2083 17.569 21.7355 19.6517 19.6527C21.7345 17.5699 24.2073 15.9181 26.9289 14.7917C29.6504 13.6653 32.5673 13.0863 35.5128 13.0879" stroke="#9FF8AD" stroke-width="2" stroke-miterlimit="10" stroke-linecap="round"/>
<path d="M57.377 35.0117C57.3641 40.9435 55.0003 46.6283 50.8036 50.8204C46.6069 55.0125 40.9196 57.3701 34.9878 57.3766" stroke="#61A670" stroke-width="2" stroke-miterlimit="10" stroke-linecap="round"/>
<path d="M65.9224 36.209C65.9224 39.9971 65.1757 43.7481 63.7249 47.2475C62.2741 50.7468 60.1478 53.9258 57.4675 56.6027C54.7871 59.2797 51.6054 61.402 48.1042 62.8483C44.6031 64.2946 40.8511 65.0366 37.063 65.0318" stroke="#71BD65" stroke-width="2" stroke-miterlimit="10" stroke-linecap="round"/>
</svg>
