<svg width="71" height="70" viewBox="0 0 71 70" fill="none" xmlns="http://www.w3.org/2000/svg">
<g clip-path="url(#clip0_418_3678)">
<path d="M62.5727 46.2988C63.3724 48.5229 63.5235 50.9285 63.0083 53.2352C62.4931 55.5419 61.3329 57.6547 59.6629 59.3272C57.9929 60.9998 55.8819 62.1632 53.576 62.6819C51.2701 63.2006 48.8642 63.0532 46.6389 62.2569C45.6235 64.3921 44.0237 66.1957 42.0249 67.4586C40.026 68.7214 37.7101 69.3917 35.3458 69.3917C32.9815 69.3917 30.6656 68.7214 28.6667 67.4586C26.6679 66.1957 25.0681 64.3921 24.0527 62.2569C21.8267 63.0564 19.4192 63.2063 17.1112 62.689C14.8032 62.1718 12.69 61.0087 11.0181 59.3356C9.3463 57.6625 8.18483 55.5483 7.66932 53.2399C7.15381 50.9316 7.30553 48.5242 8.10675 46.2988C5.96364 45.2905 4.15168 43.6932 2.88254 41.6934C1.61339 39.6937 0.939453 37.3742 0.939453 35.0057C0.939453 32.6372 1.61339 30.3177 2.88254 28.318C4.15168 26.3182 5.96364 24.7209 8.10675 23.7126C7.3108 21.4875 7.16294 19.0822 7.68037 16.7763C8.1978 14.4705 9.35926 12.359 11.0296 10.6873C12.7 9.01566 14.8107 7.8526 17.1161 7.33342C19.4216 6.81424 21.827 6.96027 24.0527 7.75453C25.0646 5.61537 26.6632 3.80759 28.6624 2.54161C30.6617 1.27562 32.9794 0.603516 35.3458 0.603516C37.7122 0.603516 40.0299 1.27562 42.0292 2.54161C44.0285 3.80759 45.627 5.61537 46.6389 7.75453C48.8639 6.96347 51.2677 6.8199 53.5711 7.34051C55.8745 7.86112 57.9829 9.02453 59.6514 10.6956C61.32 12.3667 62.4802 14.4769 62.9973 16.781C63.5144 19.0852 63.3672 21.4888 62.5727 23.7126C64.7158 24.7209 66.5278 26.3182 67.797 28.318C69.0661 30.3177 69.74 32.6372 69.74 35.0057C69.74 37.3742 69.0661 39.6937 67.797 41.6934C66.5278 43.6932 64.7158 45.2905 62.5727 46.2988Z" fill="#75CC7E" stroke="#777777" stroke-miterlimit="10"/>
<path d="M55.0116 43.1602C55.5899 44.7668 55.6994 46.5047 55.3274 48.1712C54.9553 49.8377 54.1169 51.364 52.9101 52.5721C51.7034 53.7801 50.1779 54.6201 48.5118 54.9939C46.8457 55.3678 45.1077 55.2601 43.5004 54.6834C42.768 56.2261 41.613 57.5294 40.1696 58.442C38.7261 59.3545 37.0534 59.8389 35.3457 59.8389C33.638 59.8389 31.9653 59.3545 30.5218 58.442C29.0784 57.5294 27.9234 56.2261 27.1909 54.6834C25.5837 55.2601 23.8456 55.3678 22.1795 54.9939C20.5134 54.6201 18.988 53.7801 17.7812 52.5721C16.5744 51.364 15.7361 49.8377 15.364 48.1712C14.9919 46.5047 15.1014 44.7668 15.6798 43.1602C14.1331 42.4312 12.8257 41.2775 11.91 39.8336C10.9943 38.3897 10.5081 36.7152 10.5081 35.0054C10.5081 33.2956 10.9943 31.6211 11.91 30.1772C12.8257 28.7333 14.1331 27.5796 15.6798 26.8506C15.1067 25.2443 15.001 23.5084 15.375 21.8445C15.749 20.1805 16.5874 18.6568 17.7927 17.4502C18.998 16.2436 20.5209 15.4037 22.1844 15.0279C23.848 14.6521 25.584 14.756 27.1909 15.3274C27.9234 13.7847 29.0784 12.4814 30.5218 11.5688C31.9653 10.6563 33.638 10.1719 35.3457 10.1719C37.0534 10.1719 38.7261 10.6563 40.1696 11.5688C41.613 12.4814 42.768 13.7847 43.5004 15.3274C45.1073 14.756 46.8434 14.6521 48.5069 15.0279C50.1705 15.4037 51.6934 16.2436 52.8987 17.4502C54.104 18.6568 54.9423 20.1805 55.3163 21.8445C55.6903 23.5084 55.5847 25.2443 55.0116 26.8506C56.5582 27.5796 57.8657 28.7333 58.7814 30.1772C59.6971 31.6211 60.1833 33.2956 60.1833 35.0054C60.1833 36.7152 59.6971 38.3897 58.7814 39.8336C57.8657 41.2775 56.5582 42.4312 55.0116 43.1602Z" fill="#7BD873" stroke="#777777" stroke-miterlimit="10"/>
<path d="M65.4807 35.0059C65.4832 37.0803 64.8941 39.1123 63.7823 40.8637C62.6706 42.615 61.0824 44.0129 59.2041 44.8933C59.9148 46.8436 60.054 48.9563 59.6055 50.983C59.1571 53.0097 58.1395 54.8663 56.6724 56.3347C55.2052 57.8031 53.3495 58.8223 51.3232 59.2725C49.2968 59.7228 47.1841 59.5853 45.2332 58.8764C44.351 60.7524 42.9523 62.3381 41.2011 63.4476C39.4499 64.5571 37.4188 65.1445 35.3457 65.1409" stroke="#71BD65" stroke-miterlimit="10" stroke-linecap="round"/>
<path d="M65.4807 35.0059C65.4832 37.0803 64.8941 39.1123 63.7823 40.8637C62.6706 42.615 61.0824 44.0129 59.2041 44.8933C59.9148 46.8436 60.054 48.9563 59.6055 50.983C59.1571 53.0097 58.1395 54.8663 56.6724 56.3347C55.2052 57.8031 53.3495 58.8223 51.3232 59.2725C49.2968 59.7228 47.1841 59.5853 45.2332 58.8764C44.351 60.7524 42.9523 62.3381 41.2011 63.4476C39.4499 64.5571 37.4188 65.1445 35.3457 65.1409" stroke="#71BD65" stroke-width="2" stroke-miterlimit="10" stroke-linecap="round"/>
<path d="M4.68973 34.4847C4.6849 32.4082 5.273 30.3736 6.38488 28.6199C7.49676 26.8662 9.0862 25.4664 10.9663 24.5851C10.2573 22.6361 10.1187 20.5252 10.5668 18.5002C11.015 16.4752 12.0313 14.62 13.4966 13.1521C14.9619 11.6843 16.8153 10.6648 18.8396 10.2131C20.8638 9.76141 22.9749 9.89635 24.9251 10.6021C25.81 8.72644 27.2113 7.14202 28.9647 6.0346C30.7181 4.92718 32.7509 4.34269 34.8247 4.34967" stroke="#9FF8AD" stroke-width="2" stroke-miterlimit="10" stroke-linecap="round"/>
<path d="M56.4658 35.6113C56.4674 37.0171 56.0682 38.3941 55.3149 39.5809C54.5615 40.7678 53.4854 41.7152 52.2127 42.312C52.6899 43.6325 52.781 45.0617 52.4756 46.4321C52.1701 47.8026 51.4806 49.0576 50.4877 50.0505C49.4949 51.0433 48.2398 51.7328 46.8694 52.0383C45.4989 52.3438 44.0698 52.2526 42.7493 51.7754C42.1478 53.0427 41.1986 54.113 40.0123 54.8617C38.826 55.6104 37.4514 56.0066 36.0486 56.0043" stroke="#61A670" stroke-miterlimit="10" stroke-linecap="round"/>
<path d="M14.7349 34.6781C14.7355 33.2744 15.1358 31.9 15.889 30.7155C16.6422 29.531 17.7171 28.5855 18.9879 27.9895C18.5123 26.6703 18.4218 25.2429 18.7269 23.8742C19.0321 22.5054 19.7204 21.2517 20.7114 20.2594C21.7023 19.2672 22.9552 18.5773 24.3235 18.2704C25.6919 17.9635 27.1194 18.0522 28.4392 18.5261C29.039 17.2566 29.9874 16.1838 31.1739 15.4328C32.3603 14.6819 33.7358 14.2839 35.1399 14.2852" stroke="#9FF8AD" stroke-miterlimit="10" stroke-linecap="round"/>
</g>
<defs>
<clipPath id="clip0_418_3678">
<rect width="70" height="70" fill="white" transform="translate(0.339844)"/>
</clipPath>
</defs>
</svg>
