<svg width="70" height="70" viewBox="0 0 70 70" fill="none" xmlns="http://www.w3.org/2000/svg">
<g clip-path="url(#clip0_418_3687)">
<path d="M0.943911 11.9823C23.7015 -3.18941 46.451 -3.18941 69.1924 11.9823C69.3373 42.4706 56.4366 60.0824 35.0561 69.3352C10.0759 58.041 0.7748 37.7234 0.943911 11.9823Z" fill="#75CC7E" stroke="#777777" stroke-miterlimit="10"/>
<path d="M9.45979 17.7198C26.54 6.33298 43.6324 6.33298 60.7368 17.7198C60.8092 40.5981 51.0732 53.813 35.0802 60.7707C16.3088 52.291 9.339 37.0347 9.45979 17.7198Z" fill="#7BD873" stroke="#777777" stroke-miterlimit="10"/>
<path d="M58.2244 20.377C58.321 39.7281 50.1191 50.9015 36.5781 56.7721" stroke="#61A670" stroke-miterlimit="10" stroke-linecap="round"/>
<path d="M66.6194 14.1445C66.7765 41.6614 55.1078 57.5699 35.8049 65.9167" stroke="#71BD65" stroke-width="2" stroke-miterlimit="10" stroke-linecap="round"/>
<path d="M10.414 45.1278C5.44939 36.1649 3.34758 25.5351 3.43214 13.7215C13.9815 6.67515 24.5268 3.15602 35.068 3.16408" stroke="#9FF8AD" stroke-width="2" stroke-miterlimit="10" stroke-linecap="round"/>
<path d="M18.4589 44.1494C14.0258 37.3125 12.2018 28.9898 12.2622 19.6041C19.8641 14.5308 27.4661 11.9941 35.0681 11.9941" stroke="#9FF8AD" stroke-miterlimit="10" stroke-linecap="round"/>
</g>
<defs>
<clipPath id="clip0_418_3687">
<rect width="69.4806" height="70" fill="white" transform="translate(0.339844)"/>
</clipPath>
</defs>
</svg>
