<svg width="69" height="70" viewBox="0 0 69 70" fill="none" xmlns="http://www.w3.org/2000/svg">
<g clip-path="url(#clip0_418_3684)">
<path d="M68.3329 22.0327L63.2838 50.3717L34.9448 69.288L6.61771 50.3717L1.5686 22.0327L19.5842 0.591797H50.3173L68.3329 22.0327Z" fill="#75CC7E" stroke="#777777" stroke-miterlimit="10"/>
<path d="M58.8628 25.6943L55.2478 45.9974L34.9566 59.5446L14.6654 45.9974L11.0386 25.6943L26.3518 7.93945L43.7037 8.06983L58.8628 25.6943Z" fill="#7BD873" stroke="#777777" stroke-miterlimit="10"/>
<path d="M55.6036 26.7969L52.4746 44.3147L34.9568 56.0129" stroke="#61A670" stroke-miterlimit="10" stroke-linecap="round"/>
<path d="M65.5833 23.0273L60.9964 48.8062L34.9568 66.1818" stroke="#71BD65" stroke-width="2" stroke-miterlimit="10" stroke-linecap="round"/>
<path d="M17.427 44.3157L14.3098 26.7979L27.5252 11.4609L42.5066 11.5795" stroke="#9FF8AD" stroke-miterlimit="10" stroke-linecap="round"/>
<path d="M8.49028 43.2729L4.8042 22.555L21.6938 2.77344L39.4012 2.91567" stroke="#9FF8AD" stroke-width="2" stroke-miterlimit="10" stroke-linecap="round"/>
</g>
<defs>
<clipPath id="clip0_418_3684">
<rect width="68.0325" height="70" fill="white" transform="translate(0.94043)"/>
</clipPath>
</defs>
</svg>
