<svg width="60" height="60" viewBox="0 0 60 60" fill="none" xmlns="http://www.w3.org/2000/svg">
<path d="M30.0001 59.299C46.1814 59.299 59.299 46.1814 59.299 30.0001C59.299 13.8187 46.1814 0.701172 30.0001 0.701172C13.8187 0.701172 0.701172 13.8187 0.701172 30.0001C0.701172 46.1814 13.8187 59.299 30.0001 59.299Z" fill="#D6D0C0" stroke="#777777" stroke-width="1.34" stroke-miterlimit="10"/>
<path d="M4.00781 28.7131C4.00781 22.1608 6.61068 15.877 11.2438 11.2438C15.877 6.61068 22.1608 4.00781 28.7131 4.00781" stroke="#E9E7DC" stroke-width="2" stroke-miterlimit="10" stroke-linecap="round"/>
<path d="M30.0001 52.341C42.3384 52.341 52.3405 42.3389 52.3405 30.0006C52.3405 17.6623 42.3384 7.66016 30.0001 7.66016C17.6618 7.66016 7.65967 17.6623 7.65967 30.0006C7.65967 42.3389 17.6618 52.341 30.0001 52.341Z" fill="#D8D6D0" stroke="#777777" stroke-miterlimit="10"/>
<path d="M11.2173 30.439C11.2159 27.9143 11.7122 25.4141 12.6777 23.0813C13.6432 20.7486 15.059 18.629 16.8443 16.8438C18.6295 15.0586 20.7491 13.6427 23.0818 12.6772C25.4146 11.7117 27.9148 11.2154 30.4395 11.2168" stroke="#E9E7DC" stroke-width="2" stroke-miterlimit="10" stroke-linecap="round"/>
<path d="M49.1805 30.0098C49.1695 35.0942 47.1434 39.9668 43.5462 43.5601C39.949 47.1533 35.0741 49.1741 29.9897 49.1796" stroke="#98968A" stroke-width="2" stroke-miterlimit="10" stroke-linecap="round"/>
<path d="M56.5052 31.0352C56.5052 34.2821 55.8652 37.4973 54.6216 40.4967C53.3781 43.4961 51.5555 46.221 49.2581 48.5155C46.9607 50.81 44.2335 52.6292 41.2325 53.8689C38.2315 55.1086 35.0155 55.7445 31.7686 55.7404" stroke="#96948E" stroke-width="2" stroke-miterlimit="10" stroke-linecap="round"/>
</svg>
